<svg width="131" height="18" viewBox="0 0 131 18" fill="none" xmlns="http://www.w3.org/2000/svg">
<path d="M0.563165 17.4629L6.83144 0.323086H10.3573L16.6256 17.4629H13.2956L11.9244 13.4963H5.23988L3.84421 17.4629H0.563165ZM6.09687 11.0477H11.0674L8.5699 3.92245L6.09687 11.0477ZM18.8335 17.4629V0.323086H21.9676L30.0234 12.3944V0.323086H33.1575V17.4629H30.0234L21.9676 5.41606V17.4629H18.8335ZM40.4714 17.4629V2.84509H35.4763V0.323086H48.625V2.84509H43.6055V17.4629H40.4714ZM50.9467 17.4629V0.323086H54.0809V17.4629H50.9467ZM57.0601 11.6843V9.06439H67.3194V11.6843H57.0601ZM76.1671 17.7567C74.9102 17.7567 73.8002 17.5445 72.8371 17.1201C71.874 16.6794 71.1149 16.0591 70.5599 15.2592C70.0049 14.443 69.7193 13.4554 69.703 12.2965H73.0085C73.0411 13.0963 73.3268 13.7738 73.8655 14.3288C74.4205 14.8674 75.1795 15.1368 76.1426 15.1368C76.9751 15.1368 77.6362 14.9409 78.1259 14.5491C78.6156 14.141 78.8605 13.6024 78.8605 12.9331C78.8605 12.2312 78.6401 11.6843 78.1994 11.2926C77.775 10.9008 77.2037 10.5825 76.4854 10.3376C75.7672 10.0928 75 9.8316 74.1838 9.5541C72.8616 9.09703 71.8495 8.50938 71.1476 7.79114C70.462 7.0729 70.1192 6.11797 70.1192 4.92635C70.1029 3.91428 70.3396 3.04913 70.8293 2.33089C71.3353 1.59633 72.0209 1.03316 72.8861 0.641397C73.7512 0.233307 74.747 0.0292616 75.8733 0.0292616C77.0159 0.0292616 78.0198 0.233307 78.885 0.641397C79.7665 1.04949 80.4521 1.62081 80.9418 2.35538C81.4478 3.08994 81.7171 3.96325 81.7498 4.97532H78.3953C78.379 4.37134 78.1423 3.84083 77.6852 3.38377C77.2445 2.91038 76.6242 2.67369 75.8243 2.67369C75.1387 2.65736 74.5592 2.82876 74.0858 3.18788C73.6288 3.53068 73.4003 4.03671 73.4003 4.70598C73.4003 5.27731 73.5798 5.73437 73.9389 6.07716C74.2981 6.40364 74.7878 6.68114 75.4081 6.90967C76.0284 7.1382 76.7384 7.38305 77.5383 7.64423C78.3871 7.93806 79.1625 8.28085 79.8644 8.67262C80.5663 9.06439 81.1295 9.58674 81.5539 10.2397C81.9783 10.8763 82.1905 11.7007 82.1905 12.7127C82.1905 13.6105 81.962 14.443 81.5049 15.2102C81.0479 15.9774 80.3704 16.5977 79.4726 17.0711C78.5748 17.5282 77.473 17.7567 76.1671 17.7567ZM83.8232 17.4629L90.0915 0.323086H93.6174L99.8857 17.4629H96.5556L95.1844 13.4963H88.4999L87.1043 17.4629H83.8232ZM89.3569 11.0477H94.3275L91.8299 3.92245L89.3569 11.0477ZM102.094 17.4629V0.323086H108.435C109.806 0.323086 110.941 0.551617 111.839 1.00868C112.737 1.46574 113.406 2.0942 113.847 2.89406C114.287 3.69391 114.508 4.59171 114.508 5.58745C114.508 6.53423 114.295 7.40754 113.871 8.2074C113.447 8.99093 112.786 9.62755 111.888 10.1173C110.99 10.5906 109.839 10.8273 108.435 10.8273H105.228V17.4629H102.094ZM105.228 8.28085H108.239C109.333 8.28085 110.117 8.04416 110.59 7.57078C111.08 7.08107 111.325 6.41996 111.325 5.58745C111.325 4.73863 111.08 4.07752 110.59 3.60413C110.117 3.11443 109.333 2.86957 108.239 2.86957H105.228V8.28085ZM114.023 17.4629L120.292 0.323086H123.818L130.086 17.4629H126.756L125.385 13.4963H118.7L117.305 17.4629H114.023ZM119.557 11.0477H124.528L122.03 3.92245L119.557 11.0477Z" fill="white"/>
</svg>
