<svg width="131" height="18" viewBox="0 0 131 18" fill="none" xmlns="http://www.w3.org/2000/svg">
<path d="M0.563165 17.463L6.83144 0.323178H10.3573L16.6256 17.463H13.2956L11.9244 13.4963H5.23988L3.84421 17.463H0.563165ZM6.09687 11.0478H11.0674L8.5699 3.92254L6.09687 11.0478ZM18.8335 17.463V0.323178H21.9676L30.0234 12.3945V0.323178H33.1575V17.463H30.0234L21.9676 5.41615V17.463H18.8335ZM40.4714 17.463V2.84518H35.4763V0.323178H48.625V2.84518H43.6055V17.463H40.4714ZM50.9467 17.463V0.323178H54.0809V17.463H50.9467ZM57.0601 11.6844V9.06448H67.3194V11.6844H57.0601ZM76.1671 17.7568C74.9102 17.7568 73.8002 17.5446 72.8371 17.1202C71.874 16.6794 71.1149 16.0592 70.5599 15.2593C70.0049 14.4431 69.7193 13.4555 69.703 12.2966H73.0085C73.0411 13.0964 73.3268 13.7738 73.8655 14.3288C74.4205 14.8675 75.1795 15.1369 76.1426 15.1369C76.9751 15.1369 77.6362 14.941 78.1259 14.5492C78.6156 14.1411 78.8605 13.6024 78.8605 12.9332C78.8605 12.2313 78.6401 11.6844 78.1994 11.2927C77.775 10.9009 77.2037 10.5826 76.4854 10.3377C75.7672 10.0929 75 9.83169 74.1838 9.55419C72.8616 9.09713 71.8495 8.50948 71.1476 7.79124C70.462 7.073 70.1192 6.11806 70.1192 4.92644C70.1029 3.91438 70.3396 3.04922 70.8293 2.33098C71.3353 1.59642 72.0209 1.03326 72.8861 0.641488C73.7512 0.233398 74.747 0.0293532 75.8733 0.0293532C77.0159 0.0293532 78.0198 0.233398 78.885 0.641488C79.7665 1.04958 80.4521 1.62091 80.9418 2.35547C81.4478 3.09003 81.7171 3.96335 81.7498 4.97541H78.3953C78.379 4.37144 78.1423 3.84092 77.6852 3.38386C77.2445 2.91047 76.6242 2.67378 75.8243 2.67378C75.1387 2.65746 74.5592 2.82885 74.0858 3.18797C73.6288 3.53077 73.4003 4.0368 73.4003 4.70607C73.4003 5.2774 73.5798 5.73446 73.9389 6.07725C74.2981 6.40373 74.7878 6.68123 75.4081 6.90976C76.0284 7.13829 76.7384 7.38314 77.5383 7.64432C78.3871 7.93815 79.1625 8.28094 79.8644 8.67271C80.5663 9.06448 81.1295 9.58683 81.5539 10.2398C81.9783 10.8764 82.1905 11.7007 82.1905 12.7128C82.1905 13.6106 81.962 14.4431 81.5049 15.2103C81.0479 15.9775 80.3704 16.5978 79.4726 17.0712C78.5748 17.5283 77.473 17.7568 76.1671 17.7568ZM83.8232 17.463L90.0915 0.323178H93.6174L99.8857 17.463H96.5556L95.1844 13.4963H88.4999L87.1043 17.463H83.8232ZM89.3569 11.0478H94.3275L91.8299 3.92254L89.3569 11.0478ZM102.094 17.463V0.323178H108.435C109.806 0.323178 110.941 0.551708 111.839 1.00877C112.737 1.46583 113.406 2.09429 113.847 2.89415C114.287 3.69401 114.508 4.59181 114.508 5.58755C114.508 6.53432 114.295 7.40763 113.871 8.20749C113.447 8.99102 112.786 9.62764 111.888 10.1174C110.99 10.5907 109.839 10.8274 108.435 10.8274H105.228V17.463H102.094ZM105.228 8.28094H108.239C109.333 8.28094 110.117 8.04425 110.59 7.57087C111.08 7.08116 111.325 6.42005 111.325 5.58755C111.325 4.73872 111.08 4.07761 110.59 3.60423C110.117 3.11452 109.333 2.86966 108.239 2.86966H105.228V8.28094ZM114.023 17.463L120.292 0.323178H123.818L130.086 17.463H126.756L125.385 13.4963H118.7L117.305 17.463H114.023ZM119.557 11.0478H124.528L122.03 3.92254L119.557 11.0478Z" fill="#0560FC"/>
</svg>
